<svg xmlns="http://www.w3.org/2000/svg" width="50" height="50" viewBox="0 0 50 50">
  <g id="组_93" data-name="组 93" transform="translate(-387 -3153)">
    <g id="组_1554" data-name="组 1554" transform="translate(387 3153.485)">
      <circle id="椭圆_13" data-name="椭圆 13" cx="25" cy="25" r="25" transform="translate(0 -0.485)" fill="#f21348"/>
      <path id="路径_3531" data-name="路径 3531" d="M45.524,21.85a11.707,11.707,0,0,0-4.549-2.3V15.4H36.309v3.4c-.749-.058-1.5-.058-2.3-.058H31.3V15.4H26.635v3.34H20.3v3.34h1.44a3.277,3.277,0,0,1,1.9.345c.288.23.4.864.4,1.9V38.953c0,.979-.115,1.613-.4,1.844a3.289,3.289,0,0,1-1.9.4H20.3v3.34h6.335v3.282H31.3V44.539h2.707c.806,0,1.555,0,2.3-.058v3.4h4.665V43.733a12.53,12.53,0,0,0,4.549-2.3C48,39.3,49.267,36.073,49.267,31.7,49.266,27.205,48,23.981,45.524,21.85ZM31.414,41.142V22.08h2.476c2.534,0,4.377.691,5.413,2.131s1.555,3.858,1.555,7.371c0,3.4-.518,5.874-1.555,7.371s-2.822,2.188-5.24,2.188Z" transform="translate(-10.035 -6.811)" fill="#fff"/>
    </g>
  </g>
</svg>
